# xmcd CD database file
#
# Track frame offsets:
#	150
#	14666
#	29075
#	41403
#	56129
#	69391
#	81666
#	94697
#	108051
#	122474
#	134385
#	146650
#
# Disc length: 2142 seconds
#
# Revision: 1
# Processed by: cddbd v1.5.2PL0 Copyright (c) Steve Scherf et al.
# Submitted via: CDex 1.70beta2
#
DISCID=a9085c0c
DTITLE=Ella Fitzgerald - With A Song In My Heart CD3
DYEAR=2008
DGENRE=Jazz
TTITLE0=I Fell In Love With A Dream
TTITLE1=All My Life
TTITLE2=I'm Getting Mighty Lonesome For You
TTITLE3=Undecided
TTITLE4=You Came Along Out Of Nowhere
TTITLE5=Mama Come Home
TTITLE6=(I Put) A Four Leaf Clover In Your Pocket
TTITLE7=Once Too Often
TTITLE8=I'm Making Believe
TTITLE9=When My Sugar Walks Down
TTITLE10=Melinda The Mouse
TTITLE11=Untitled Instrumental
EXTD=YEAR: 2008
EXTT0=
EXTT1=
EXTT2=
EXTT3=
EXTT4=
EXTT5=
EXTT6=
EXTT7=
EXTT8=
EXTT9=
EXTT10=
EXTT11=
PLAYORDER=
